<?xml version="1.0" encoding="UTF-8"?>
<svg version="1.1" xmlns="http://www.w3.org/2000/svg" width="1918" height="1974">
<path d="M0 0 C363 0 726 0 1100 0 C1100.061875 159.864375 1100.12375 319.72875 1100.1875 484.4375 C1100.21481201 534.95513428 1100.24212402 585.47276855 1100.27026367 637.52124023 C1100.28381348 699.10754395 1100.28381348 699.10754395 1100.28633118 727.91908264 C1100.28931576 749.41288381 1100.30225419 770.90665667 1100.32002028 792.4004499 C1100.33789869 814.3268512 1100.34450541 836.25323466 1100.34033485 858.17964298 C1100.33818557 871.20978541 1100.34411864 884.23986137 1100.36242279 897.26999148 C1100.37370193 905.88535758 1100.37398924 914.50067971 1100.36550602 923.11604889 C1100.36099039 928.01547822 1100.3610779 932.91478029 1100.37464774 937.81419575 C1100.42662776 957.7425474 1100.22572884 977.26909351 1097 997 C1096.87808175 997.75123058 1096.7561635 998.50246115 1096.63055076 999.27645629 C1095.95616961 1003.354339 1095.18043302 1007.39645241 1094.3125 1011.4375 C1093.93013184 1013.23815918 1093.93013184 1013.23815918 1093.54003906 1015.07519531 C1087.74227797 1041.44565706 1078.65400562 1067.33629367 1065.95458984 1091.19677734 C1064.98738302 1093.02383351 1064.04841107 1094.86337902 1063.11328125 1096.70703125 C1051.48137895 1119.40589171 1036.09994536 1140.14398241 1019 1159 C1018.43861328 1159.62310059 1017.87722656 1160.24620117 1017.29882812 1160.88818359 C1006.2712343 1173.09551716 1006.2712343 1173.09551716 999.9765625 1178.328125 C998.53769923 1179.54518721 997.14153919 1180.81327867 995.7734375 1182.109375 C983.08012222 1194.13462106 968.50421324 1204.03778707 954.20703125 1214.04296875 C949.7957023 1217.13347874 945.42587174 1220.27976579 941.0625 1223.4375 C939.94379517 1224.24682983 939.94379517 1224.24682983 938.80249023 1225.07250977 C936.53445889 1226.71426992 934.26710375 1228.35695922 932 1230 C922.50317587 1236.88264459 912.9884349 1243.7342194 903.39428711 1250.48071289 C898.23409805 1254.11460686 893.11061851 1257.79678074 888 1261.5 C881.49941517 1266.21040657 874.9613612 1270.86297608 868.39453125 1275.48046875 C863.2343328 1279.11454566 858.1107106 1282.79671401 853 1286.5 C847.1943344 1290.70685924 841.36478281 1294.87595272 835.5 1299 C826.60923428 1305.25432876 817.80166999 1311.6211553 809 1318 C799.50317587 1324.88264459 789.9884349 1331.7342194 780.39428711 1338.48071289 C775.23409805 1342.11460686 770.11061851 1345.79678074 765 1349.5 C759.1943357 1353.7068583 753.3648422 1357.87603835 747.5 1362 C740.80217362 1366.71037086 734.15192553 1371.48316721 727.51953125 1376.28515625 C722.46758566 1379.94255436 717.40043078 1383.57747735 712.32080078 1387.19628906 C707.59388603 1390.56744302 702.8901856 1393.97015949 698.1875 1397.375 C691.62373005 1402.12538944 685.02309566 1406.81950981 678.39526367 1411.47998047 C673.23479354 1415.11418152 668.11094815 1418.79654188 663 1422.5 C656.49941517 1427.21040657 649.9613612 1431.86297608 643.39453125 1436.48046875 C638.2343328 1440.11454566 633.1107106 1443.79671401 628 1447.5 C622.1943344 1451.70685924 616.36478281 1455.87595272 610.5 1460 C602.37802481 1465.71351272 594.32506114 1471.51947702 586.28369141 1477.34570312 C583.97509013 1479.01804461 581.66552032 1480.68903748 579.35546875 1482.359375 C578.59186035 1482.91165771 577.82825195 1483.46394043 577.04150391 1484.03295898 C575.52826299 1485.12556858 574.01363906 1486.21626558 572.49755859 1487.30493164 C568.9458349 1489.8568267 565.41695977 1492.42958262 561.93359375 1495.07421875 C560.98178223 1495.7854187 560.98178223 1495.7854187 560.01074219 1496.51098633 C558.8315853 1497.39314347 557.66093855 1498.28684301 556.50097656 1499.1940918 C554.19376227 1500.90386426 552.52826048 1501.97393452 549.625 1502.1171875 C545.59678737 1500.40279939 542.29999233 1497.87079162 538.8125 1495.25 C537.19545634 1494.05839853 535.5782647 1492.86699784 533.9609375 1491.67578125 C532.7248877 1490.75853271 532.7248877 1490.75853271 531.46386719 1489.82275391 C527.64397639 1486.99682201 523.79148893 1484.21665284 519.9375 1481.4375 C519.19346924 1480.89963867 518.44943848 1480.36177734 517.68286133 1479.80761719 C511.9500485 1475.66839316 506.17829371 1471.58653349 500.39428711 1467.51928711 C494.47020892 1463.34744926 488.59759925 1459.10686623 482.73046875 1454.85546875 C477.67917792 1451.20004412 472.60047648 1447.58642038 467.5 1444 C460.87077288 1439.33863251 454.29271463 1434.61055569 447.73046875 1429.85546875 C442.67917792 1426.20004412 437.60047648 1422.58642038 432.5 1419 C425.87077288 1414.33863251 419.29271463 1409.61055569 412.73046875 1404.85546875 C407.67917614 1401.20004284 402.60039475 1397.58653845 397.5 1394 C387.84476537 1387.2078953 378.28794068 1380.28179787 368.72949219 1373.35449219 C359.98853205 1367.02171736 351.22379766 1360.72809656 342.39428711 1354.51928711 C336.47020892 1350.34744926 330.59759925 1346.10686623 324.73046875 1341.85546875 C319.67917792 1338.20004412 314.60047648 1334.58642038 309.5 1331 C302.87077288 1326.33863251 296.29271463 1321.61055569 289.73046875 1316.85546875 C284.67917792 1313.20004412 279.60047648 1309.58642038 274.5 1306 C267.87077288 1301.33863251 261.29271463 1296.61055569 254.73046875 1291.85546875 C249.67917614 1288.20004284 244.60039475 1284.58653845 239.5 1281 C229.84476537 1274.2078953 220.28794068 1267.28179787 210.72949219 1260.35449219 C201.98853205 1254.02171736 193.22379766 1247.72809656 184.39428711 1241.51928711 C178.47020892 1237.34744926 172.59759925 1233.10686623 166.73046875 1228.85546875 C161.67917127 1225.20003931 156.60017091 1221.58686187 151.5 1218 C133.39149928 1205.245903 115.57592458 1192.56649454 99.44580078 1177.34423828 C97.38393592 1175.42721229 95.2545008 1173.5912435 93.125 1171.75 C89.76219476 1168.77708522 86.8035966 1165.6492471 83.9140625 1162.21875 C82.53409658 1160.61911603 81.10553303 1159.06095827 79.6484375 1157.53125 C29.43430082 1104.79900027 -0.25127933 1027.85450782 -0.12304783 955.46638966 C-0.12378836 953.79528572 -0.12496789 952.12418193 -0.12654402 950.45307858 C-0.129603 945.86587129 -0.12644674 941.27868628 -0.12226575 936.69148066 C-0.11882938 931.71067625 -0.12120616 926.72987407 -0.12284851 921.74906921 C-0.12492599 913.01208771 -0.12327959 904.27511302 -0.11921513 895.53813231 C-0.113113 882.37779787 -0.11284529 869.21746755 -0.11368043 856.05713194 C-0.1149226 834.00270155 -0.11163757 811.94827411 -0.10557556 789.8938446 C-0.09739633 760.07323103 -0.09547276 730.25262223 -0.09460449 700.43200684 C-0.08935109 628.72550395 -0.07539002 557.01900192 -0.0625 485.3125 C-0.041875 325.159375 -0.02125 165.00625 0 0 Z " fill="#FEFEFE" transform="translate(426,287)"/>
<path d="M0 0 C363 0 726 0 1100 0 C1100.061875 159.864375 1100.12375 319.72875 1100.1875 484.4375 C1100.21481201 534.95513428 1100.24212402 585.47276855 1100.27026367 637.52124023 C1100.28381348 699.10754395 1100.28381348 699.10754395 1100.28633118 727.91908264 C1100.28931576 749.41288381 1100.30225419 770.90665667 1100.32002028 792.4004499 C1100.33789869 814.3268512 1100.34450541 836.25323466 1100.34033485 858.17964298 C1100.33818557 871.20978541 1100.34411864 884.23986137 1100.36242279 897.26999148 C1100.37370193 905.88535758 1100.37398924 914.50067971 1100.36550602 923.11604889 C1100.36099039 928.01547822 1100.3610779 932.91478029 1100.37464774 937.81419575 C1100.42662776 957.7425474 1100.22572884 977.26909351 1097 997 C1096.87808175 997.75123058 1096.7561635 998.50246115 1096.63055076 999.27645629 C1095.95616961 1003.354339 1095.18043302 1007.39645241 1094.3125 1011.4375 C1093.93013184 1013.23815918 1093.93013184 1013.23815918 1093.54003906 1015.07519531 C1087.74227797 1041.44565706 1078.65400562 1067.33629367 1065.95458984 1091.19677734 C1064.98738302 1093.02383351 1064.04841107 1094.86337902 1063.11328125 1096.70703125 C1051.48137895 1119.40589171 1036.09994536 1140.14398241 1019 1159 C1018.43861328 1159.62310059 1017.87722656 1160.24620117 1017.29882812 1160.88818359 C1006.2712343 1173.09551716 1006.2712343 1173.09551716 999.9765625 1178.328125 C998.53769923 1179.54518721 997.14153919 1180.81327867 995.7734375 1182.109375 C983.08012222 1194.13462106 968.50421324 1204.03778707 954.20703125 1214.04296875 C949.7957023 1217.13347874 945.42587174 1220.27976579 941.0625 1223.4375 C939.94379517 1224.24682983 939.94379517 1224.24682983 938.80249023 1225.07250977 C936.53445889 1226.71426992 934.26710375 1228.35695922 932 1230 C922.50317587 1236.88264459 912.9884349 1243.7342194 903.39428711 1250.48071289 C898.23409805 1254.11460686 893.11061851 1257.79678074 888 1261.5 C881.49941517 1266.21040657 874.9613612 1270.86297608 868.39453125 1275.48046875 C863.2343328 1279.11454566 858.1107106 1282.79671401 853 1286.5 C847.1943344 1290.70685924 841.36478281 1294.87595272 835.5 1299 C826.60923428 1305.25432876 817.80166999 1311.6211553 809 1318 C799.50317587 1324.88264459 789.9884349 1331.7342194 780.39428711 1338.48071289 C775.23409805 1342.11460686 770.11061851 1345.79678074 765 1349.5 C759.1943357 1353.7068583 753.3648422 1357.87603835 747.5 1362 C740.80217362 1366.71037086 734.15192553 1371.48316721 727.51953125 1376.28515625 C722.46758566 1379.94255436 717.40043078 1383.57747735 712.32080078 1387.19628906 C707.59388603 1390.56744302 702.8901856 1393.97015949 698.1875 1397.375 C691.62373005 1402.12538944 685.02309566 1406.81950981 678.39526367 1411.47998047 C673.23479354 1415.11418152 668.11094815 1418.79654188 663 1422.5 C656.49941517 1427.21040657 649.9613612 1431.86297608 643.39453125 1436.48046875 C638.2343328 1440.11454566 633.1107106 1443.79671401 628 1447.5 C622.1943344 1451.70685924 616.36478281 1455.87595272 610.5 1460 C602.37802481 1465.71351272 594.32506114 1471.51947702 586.28369141 1477.34570312 C583.97509013 1479.01804461 581.66552032 1480.68903748 579.35546875 1482.359375 C578.59186035 1482.91165771 577.82825195 1483.46394043 577.04150391 1484.03295898 C575.52826299 1485.12556858 574.01363906 1486.21626558 572.49755859 1487.30493164 C568.9458349 1489.8568267 565.41695977 1492.42958262 561.93359375 1495.07421875 C560.98178223 1495.7854187 560.98178223 1495.7854187 560.01074219 1496.51098633 C558.8315853 1497.39314347 557.66093855 1498.28684301 556.50097656 1499.1940918 C554.19376227 1500.90386426 552.52826048 1501.97393452 549.625 1502.1171875 C545.59678737 1500.40279939 542.29999233 1497.87079162 538.8125 1495.25 C537.19545634 1494.05839853 535.5782647 1492.86699784 533.9609375 1491.67578125 C532.7248877 1490.75853271 532.7248877 1490.75853271 531.46386719 1489.82275391 C527.64397639 1486.99682201 523.79148893 1484.21665284 519.9375 1481.4375 C519.19346924 1480.89963867 518.44943848 1480.36177734 517.68286133 1479.80761719 C511.9500485 1475.66839316 506.17829371 1471.58653349 500.39428711 1467.51928711 C494.47020892 1463.34744926 488.59759925 1459.10686623 482.73046875 1454.85546875 C477.67917792 1451.20004412 472.60047648 1447.58642038 467.5 1444 C460.87077288 1439.33863251 454.29271463 1434.61055569 447.73046875 1429.85546875 C442.67917792 1426.20004412 437.60047648 1422.58642038 432.5 1419 C425.87077288 1414.33863251 419.29271463 1409.61055569 412.73046875 1404.85546875 C407.67917614 1401.20004284 402.60039475 1397.58653845 397.5 1394 C387.84476537 1387.2078953 378.28794068 1380.28179787 368.72949219 1373.35449219 C359.98853205 1367.02171736 351.22379766 1360.72809656 342.39428711 1354.51928711 C336.47020892 1350.34744926 330.59759925 1346.10686623 324.73046875 1341.85546875 C319.67917792 1338.20004412 314.60047648 1334.58642038 309.5 1331 C302.87077288 1326.33863251 296.29271463 1321.61055569 289.73046875 1316.85546875 C284.67917792 1313.20004412 279.60047648 1309.58642038 274.5 1306 C267.87077288 1301.33863251 261.29271463 1296.61055569 254.73046875 1291.85546875 C249.67917614 1288.20004284 244.60039475 1284.58653845 239.5 1281 C229.84476537 1274.2078953 220.28794068 1267.28179787 210.72949219 1260.35449219 C201.98853205 1254.02171736 193.22379766 1247.72809656 184.39428711 1241.51928711 C178.47020892 1237.34744926 172.59759925 1233.10686623 166.73046875 1228.85546875 C161.67917127 1225.20003931 156.60017091 1221.58686187 151.5 1218 C133.39149928 1205.245903 115.57592458 1192.56649454 99.44580078 1177.34423828 C97.38393592 1175.42721229 95.2545008 1173.5912435 93.125 1171.75 C89.76219476 1168.77708522 86.8035966 1165.6492471 83.9140625 1162.21875 C82.53409658 1160.61911603 81.10553303 1159.06095827 79.6484375 1157.53125 C29.43430082 1104.79900027 -0.25127933 1027.85450782 -0.12304783 955.46638966 C-0.12378836 953.79528572 -0.12496789 952.12418193 -0.12654402 950.45307858 C-0.129603 945.86587129 -0.12644674 941.27868628 -0.12226575 936.69148066 C-0.11882938 931.71067625 -0.12120616 926.72987407 -0.12284851 921.74906921 C-0.12492599 913.01208771 -0.12327959 904.27511302 -0.11921513 895.53813231 C-0.113113 882.37779787 -0.11284529 869.21746755 -0.11368043 856.05713194 C-0.1149226 834.00270155 -0.11163757 811.94827411 -0.10557556 789.8938446 C-0.09739633 760.07323103 -0.09547276 730.25262223 -0.09460449 700.43200684 C-0.08935109 628.72550395 -0.07539002 557.01900192 -0.0625 485.3125 C-0.041875 325.159375 -0.02125 165.00625 0 0 Z M27 27 C26.938125 179.41875 26.87625 331.8375 26.8125 488.875 C26.78518799 537.01358887 26.75787598 585.15217773 26.72973633 634.74951172 C26.71970344 677.87525908 26.71970344 677.87525908 26.71366882 721.00100708 C26.71068829 741.48391374 26.69776498 761.96679058 26.67997972 782.44968888 C26.66206918 803.36066839 26.65550195 824.27162918 26.65966515 845.18261606 C26.66180889 857.5980539 26.65593601 870.01342178 26.63757721 882.4288466 C26.62625037 890.65074698 26.62604377 898.87260141 26.63449398 907.09450508 C26.63898504 911.7618628 26.63902622 916.4290872 26.62535226 921.09643006 C26.57699445 938.67016379 26.81572011 956.11163113 28.37801647 973.62541389 C28.46987462 974.66219612 28.46987462 974.66219612 28.56358849 975.71992344 C30.4104189 996.00359685 34.86067386 1015.6086676 41 1035 C41.25475098 1035.81210938 41.50950195 1036.62421875 41.77197266 1037.4609375 C53.77593073 1075.15110805 74.20924021 1110.25339373 101.296875 1139.0859375 C103.37080378 1141.32170466 105.36969047 1143.5826755 107.35546875 1145.89453125 C110.88153574 1149.93961542 114.63704524 1153.6573639 118.5625 1157.3125 C119.25939941 1157.96202637 119.95629883 1158.61155273 120.67431641 1159.28076172 C131.91724112 1169.6401861 144.26114421 1178.45949423 156.68115234 1187.33837891 C159.73202979 1189.52455199 162.77060772 1191.72748629 165.80957031 1193.93017578 C173.03785193 1199.16731177 180.30414737 1204.34633667 187.60571289 1209.48071289 C193.52979108 1213.65255074 199.40240075 1217.89313377 205.26953125 1222.14453125 C210.32082208 1225.79995588 215.39952352 1229.41357962 220.5 1233 C227.12922712 1237.66136749 233.70728537 1242.38944431 240.26953125 1247.14453125 C245.32082208 1250.79995588 250.39952352 1254.41357962 255.5 1258 C262.12922712 1262.66136749 268.70728537 1267.38944431 275.26953125 1272.14453125 C280.32082386 1275.79995716 285.39960525 1279.41346155 290.5 1283 C300.15523463 1289.7921047 309.71205932 1296.71820213 319.27050781 1303.64550781 C328.01146795 1309.97828264 336.77620234 1316.27190344 345.60571289 1322.48071289 C351.52979108 1326.65255074 357.40240075 1330.89313377 363.26953125 1335.14453125 C368.32082208 1338.79995588 373.39952352 1342.41357962 378.5 1346 C385.12922712 1350.66136749 391.70728537 1355.38944431 398.26953125 1360.14453125 C403.32082208 1363.79995588 408.39952352 1367.41357962 413.5 1371 C420.12922712 1375.66136749 426.70728537 1380.38944431 433.26953125 1385.14453125 C438.32082386 1388.79995716 443.39960525 1392.41346155 448.5 1396 C458.15523463 1402.7921047 467.71205932 1409.71820213 477.27050781 1416.64550781 C486.01146795 1422.97828264 494.77620234 1429.27190344 503.60571289 1435.48071289 C509.51948541 1439.64529331 515.3822379 1443.87801015 521.23876953 1448.12255859 C527.29792101 1452.50794054 533.3983033 1456.83262008 539.51953125 1461.13085938 C540.18082031 1461.59556641 540.84210937 1462.06027344 541.5234375 1462.5390625 C542.13799805 1462.96477539 542.75255859 1463.39048828 543.38574219 1463.82910156 C545 1465 545 1465 547.1640625 1466.9609375 C548.98640965 1468.25659157 548.98640965 1468.25659157 551.23828125 1467.55078125 C555.1083183 1465.3776487 558.62316341 1462.82605485 562.1875 1460.1875 C563.8046083 1459.00510001 565.42179808 1457.82281144 567.0390625 1456.640625 C567.8630957 1456.03541016 568.68712891 1455.43019531 569.53613281 1454.80664062 C573.36525678 1451.99891992 577.21300778 1449.21719784 581.0625 1446.4375 C581.80653076 1445.89955811 582.55056152 1445.36161621 583.31713867 1444.80737305 C589.05104039 1440.66798519 594.82394837 1436.58609423 600.60791016 1432.51708984 C608.79186072 1426.75185476 616.894291 1420.87446007 625 1415 C634.49682413 1408.11735541 644.0115651 1401.2657806 653.60571289 1394.51928711 C658.76590195 1390.88539314 663.88938149 1387.20321926 669 1383.5 C675.50058483 1378.78959343 682.0386388 1374.13702392 688.60546875 1369.51953125 C693.7656672 1365.88545434 698.8892894 1362.20328599 704 1358.5 C709.8056656 1354.29314076 715.63521719 1350.12404728 721.5 1346 C730.39076572 1339.74567124 739.19833001 1333.3788447 748 1327 C757.49682413 1320.11735541 767.0115651 1313.2657806 776.60571289 1306.51928711 C781.76590195 1302.88539314 786.88938149 1299.20321926 792 1295.5 C798.50058483 1290.78959343 805.0386388 1286.13702392 811.60546875 1281.51953125 C816.7656672 1277.88545434 821.8892894 1274.20328599 827 1270.5 C832.8056656 1266.29314076 838.63521719 1262.12404728 844.5 1258 C853.39076572 1251.74567124 862.19833001 1245.3788447 871 1239 C880.49682413 1232.11735541 890.0115651 1225.2657806 899.60571289 1218.51928711 C904.76590195 1214.88539314 909.88938149 1211.20321926 915 1207.5 C920.80567218 1203.293136 926.63550945 1199.12446939 932.5 1195 C948.13877956 1183.98351083 963.50032626 1173.02823736 977.66015625 1160.12109375 C979.78804815 1158.19213665 981.94720859 1156.30963647 984.125 1154.4375 C990.96716693 1148.46265 997.15496225 1141.94372906 1003 1135 C1003.43376953 1134.49597656 1003.86753906 1133.99195313 1004.31445312 1133.47265625 C1056.96472912 1072.10638571 1073.39704466 998.28969344 1073.2445315 919.51720691 C1073.23758188 914.75905315 1073.24242675 910.0009078 1073.24569702 905.24275208 C1073.24982833 896.91882234 1073.24659979 888.5949214 1073.23843026 880.27099502 C1073.22616562 867.73313999 1073.22569574 855.19530217 1073.22736086 842.65744222 C1073.22983846 821.64052429 1073.22328548 800.62361891 1073.21115112 779.60670471 C1073.19477291 751.18901115 1073.19094306 722.77133902 1073.18920898 694.3536377 C1073.17871432 626.04825592 1073.15079202 557.74287772 1073.125 489.4375 C1073.08375 336.833125 1073.0425 184.22875 1073 27 C727.82 27 382.64 27 27 27 Z " fill="#202844" transform="translate(426,287)"/>
<path d="M0 0 C0.78222209 -0.00438225 1.56444418 -0.00876451 2.37036997 -0.01327956 C5.00021672 -0.02666925 7.63002995 -0.03284691 10.25990295 -0.03897095 C12.14233044 -0.04687206 14.02475641 -0.05514102 15.90718079 -0.06375122 C22.09904024 -0.08998003 28.29090647 -0.10528418 34.48280334 -0.11953735 C36.61568773 -0.12489752 38.74857208 -0.13027503 40.88145638 -0.13566971 C49.75757607 -0.15730366 58.63369394 -0.17603796 67.50983334 -0.1872921 C80.21972834 -0.20351367 92.92931676 -0.23664213 105.6390962 -0.29369295 C114.5802469 -0.33245405 123.52131583 -0.35193236 132.46254832 -0.35721266 C137.79953212 -0.36085892 143.13618899 -0.37280238 148.47308159 -0.4053154 C153.5005612 -0.43550287 158.52751793 -0.44166982 163.55506897 -0.42993164 C165.3932039 -0.42971177 167.23136384 -0.4379448 169.06941414 -0.45558548 C182.26985618 -0.57530503 193.6467487 0.61151015 203.70936584 10.19296265 C206.56828266 13.52283792 208.57875732 17.173906 210.39295959 21.15390015 C210.73878523 21.89464877 211.08461086 22.6353974 211.44091606 23.39859295 C212.53933356 26.57752073 212.63909433 29.08839577 212.63346863 32.44975281 C212.63759262 34.35324745 212.63759262 34.35324745 212.64179993 36.29519653 C212.63472256 37.69381809 212.62745295 39.09243869 212.62001038 40.49105835 C212.61944599 41.9696095 212.61976335 43.44816121 212.62089539 44.92671204 C212.62146884 48.93460183 212.60971572 52.94237174 212.59574747 56.9502337 C212.5832389 61.14093431 212.58206951 65.33163772 212.57969666 69.52235413 C212.57348226 77.45539077 212.55707199 85.38837225 212.53699768 93.32138461 C212.51463742 102.35396907 212.50364493 111.38655618 212.49360681 120.41916144 C212.47270573 138.99743894 212.43753053 157.57566511 212.39295959 176.15390015 C208.48749968 174.87422495 204.77397873 173.49517056 201.05311584 171.74765015 C200.00873352 171.25965942 198.9643512 170.7716687 197.88832092 170.26889038 C196.75547668 169.7359436 195.62263245 169.20299683 194.45545959 168.65390015 C192.61555206 167.793969 190.77563236 166.9340636 188.93536377 166.0749054 C187.60627453 165.45436916 186.27735048 164.83347901 184.94857788 164.21226501 C176.74601046 160.37922654 168.52565329 156.58471706 160.30479431 152.79110718 C157.74732096 151.610721 155.19035421 150.42924284 152.63343811 149.24765015 C151.02856663 148.50670492 149.42366872 147.76581695 147.81874084 147.0249939 C146.74200104 146.5272068 146.74200104 146.5272068 145.64350891 146.0193634 C140.57907485 143.68367323 135.49067081 141.41954957 130.39295959 139.15390015 C130.39295959 119.02390015 130.39295959 98.89390015 130.39295959 78.15390015 C103.33295959 78.15390015 76.27295959 78.15390015 48.39295959 78.15390015 C48.39295959 112.14390015 48.39295959 146.13390015 48.39295959 181.15390015 C49.71295959 181.48390015 51.03295959 181.81390015 52.39295959 182.15390015 C54.2884208 182.93737155 56.16838868 183.75869145 58.03749084 184.6031189 C59.74267883 185.37051392 59.74267883 185.37051392 61.48231506 186.15341187 C62.72340206 186.71598899 63.96444916 187.27865414 65.20545959 187.84140015 C66.49325578 188.42257356 67.7811813 189.00346044 69.06922913 189.58407593 C71.78327485 190.80816032 74.49640211 192.03425038 77.20887756 193.2618103 C81.36290154 195.14131483 85.52030392 197.01326271 89.67811584 198.8843689 C91.71713964 199.80266933 93.75605938 200.7212002 95.79490662 201.63989258 C97.08521007 202.22127055 98.37559179 202.80247483 99.6660614 203.38348389 C108.94526195 207.56322282 118.1807963 211.82911499 127.39295959 216.15390015 C128.01811462 216.44730286 128.64326965 216.74070557 129.28736877 217.04299927 C132.48290813 218.54301965 135.67806118 220.04386233 138.8731842 221.54476929 C139.51947784 221.84835358 140.16577148 222.15193787 140.83164978 222.46472168 C142.18945552 223.1027123 143.54713756 223.74096623 144.90470886 224.37945557 C152.07846809 227.75251326 159.25707655 231.10903587 166.48670959 234.3609314 C167.56509094 234.84723022 168.64347229 235.33352905 169.75453186 235.83456421 C171.73102779 236.7224892 173.7104649 237.60391165 175.6934967 238.47714233 C181.68755415 241.17205232 187.04432763 244.33922054 192.39295959 248.15390015 C193.0196051 248.59435669 193.64625061 249.03481323 194.29188538 249.48861694 C198.46138757 252.52323633 201.25520301 256.52248899 204.08045959 260.77890015 C204.44913147 261.32223999 204.81780334 261.86557983 205.19764709 262.42538452 C212.08964814 273.28588437 212.98279338 284.48978251 212.92640686 296.97543335 C212.93347934 298.63758098 212.9422299 300.29972217 212.95251465 301.96185303 C212.97487275 306.44351864 212.97210046 310.92482882 212.96319318 315.40652871 C212.95805429 319.16355721 212.96539947 322.9205206 212.97266525 326.67754239 C212.9896221 335.54984737 212.98614215 344.4219802 212.96937561 353.29428101 C212.95246782 362.41140772 212.96827993 371.52805514 213.00059849 380.6451295 C213.02739432 388.50544922 213.03454326 396.36562066 213.02608341 404.22598141 C213.02118208 408.90617239 213.02321659 413.58607544 213.04387093 418.26622963 C213.06238531 422.67177861 213.05607967 427.07664513 213.03167152 431.48215866 C213.02671266 433.08680961 213.03002312 434.69151401 213.04281998 436.2961216 C213.16755488 453.29914962 209.0776313 466.36466304 197.47499084 479.2906189 C187.01463507 489.5891123 171.95095087 494.90932849 158.69325256 500.56356812 C153.50155194 502.78093784 148.41149484 505.068778 143.39295959 507.65390015 C137.34033177 510.76835913 131.14782029 513.47095477 124.89295959 516.15390015 C118.35144005 518.95982599 111.86159731 521.7973198 105.51795959 525.02890015 C103.91307678 525.84294312 103.91307678 525.84294312 102.27577209 526.6734314 C100.43251584 527.6200359 98.59350284 528.574979 96.76014709 529.5406189 C95.97897522 529.92862671 95.19780334 530.31663452 94.39295959 530.71640015 C93.43389709 531.21333374 93.43389709 531.21333374 92.45545959 531.7203064 C87.52186544 532.75748244 81.91397975 529.10958379 77.52186584 527.09140015 C76.85940353 526.7879921 76.19694122 526.48458405 75.5144043 526.17198181 C73.32667576 525.16900243 71.14104773 524.16153413 68.95545959 523.15390015 C67.40998809 522.44396254 65.86441309 521.73425021 64.31874084 521.02474976 C60.19561611 519.13096604 56.07446559 517.23292359 51.95381165 515.33377075 C49.38302282 514.14932194 46.81166749 512.9661118 44.24012756 511.78329468 C39.12346386 509.42970377 34.00798682 507.07354515 28.89295959 504.71640015 C28.10277435 504.35248169 27.31258911 503.98856323 26.49845886 503.61361694 C21.12492091 501.13782143 15.75721749 498.64973213 10.39295959 496.15390015 C9.12215042 495.56436554 9.12215042 495.56436554 7.82566833 494.96292114 C5.23513128 493.75928586 2.64768318 492.54923302 0.06092834 491.3374939 C-0.7303949 490.9706398 -1.52171814 490.60378571 -2.33702087 490.22581482 C-8.05226133 487.53626945 -13.04950553 484.5859097 -17.60704041 480.15390015 C-18.29797791 479.49003296 -18.98891541 478.82616577 -19.70079041 478.1421814 C-31.47193346 465.90985549 -35.1048327 450.76987394 -34.94761658 434.22518921 C-34.94805466 432.994487 -34.94849274 431.76378479 -34.94894409 430.49578857 C-34.94722752 427.16166888 -34.93231307 423.82812519 -34.91122222 420.49410725 C-34.89230854 416.99479729 -34.89069353 413.49547746 -34.887146 409.99612427 C-34.87786824 403.38783198 -34.85331318 396.77969081 -34.82309753 390.17146468 C-34.78941949 382.64051677 -34.77303402 375.10956116 -34.75801122 367.57855654 C-34.7267591 352.10358394 -34.67408297 336.62876163 -34.60704041 321.15390015 C-30.33409463 321.93034562 -26.66657709 323.32325086 -22.74375916 325.14608765 C-22.08317001 325.44789948 -21.42258087 325.7497113 -20.74197388 326.06066895 C-18.59049765 327.04508125 -16.44253023 328.03690662 -14.29454041 329.02890015 C-12.80338544 329.71297091 -11.31200984 330.3965609 -9.82041931 331.0796814 C-6.82431232 332.45281593 -3.82957147 333.82886156 -0.83604431 335.20761108 C2.90004849 336.92810672 6.63977767 338.64042662 10.38124084 340.34921265 C38.21000811 353.06242441 38.21000811 353.06242441 48.39295959 358.15390015 C48.72295959 381.25390015 49.05295959 404.35390015 49.39295959 428.15390015 C54.48733459 430.56702515 59.58170959 432.98015015 64.83045959 435.46640015 C66.41914856 436.2221936 68.00783752 436.97798706 69.64466858 437.75668335 C72.96335635 439.33157856 76.30792065 440.84331322 79.66078186 442.34384155 C81.09620717 443.0151229 82.49014059 443.77430928 83.86952209 444.55429077 C87.77906188 446.50906066 89.73967255 446.36286432 93.95814514 445.01351929 C98.26344688 443.25432089 102.38270914 441.15030889 106.51795959 439.02890015 C107.95800002 438.31520016 109.39939974 437.60423595 110.84217834 436.89608765 C113.50495446 435.58734712 116.15720945 434.26052987 118.80360413 432.91903687 C122.27702408 431.21091373 125.83522347 429.6786442 129.39295959 428.15390015 C129.39295959 389.54390015 129.39295959 350.93390015 129.39295959 311.15390015 C113.05795959 303.72890015 113.05795959 303.72890015 96.39295959 296.15390015 C90.34809684 293.36264624 84.30406278 290.57140282 78.26860046 287.76019287 C65.61833906 281.86919633 52.95065514 276.01950102 40.23869324 270.26281738 C36.25720198 268.4584922 32.27909986 266.64669974 28.30056763 264.83586121 C24.94607615 263.31022964 21.5888611 261.79103446 18.22694397 260.28182983 C14.78307554 258.73557102 11.34579427 257.17543679 7.91233826 255.60620117 C6.6360314 255.02585903 5.35748893 254.45040124 4.07646179 253.8805542 C-12.7620997 246.38322036 -23.93404277 235.97780788 -31.60704041 219.15390015 C-34.08240028 211.74483331 -34.73032841 204.49283481 -34.74075317 196.72937012 C-34.74301873 196.02721937 -34.74528429 195.32506862 -34.7476185 194.60164058 C-34.75389689 192.27285181 -34.75313314 189.94412217 -34.75230408 187.61532593 C-34.75529938 185.93581061 -34.75870277 184.25629597 -34.76248169 182.57678223 C-34.77128719 178.03127124 -34.77365832 173.4857791 -34.77429748 168.94026041 C-34.77500984 166.09649238 -34.77714766 163.2527291 -34.77979469 160.40896225 C-34.78903608 150.47709602 -34.79313101 140.54524319 -34.79234314 130.6133728 C-34.79174239 121.37255078 -34.80229683 112.13178714 -34.8180868 102.89097989 C-34.83118332 94.94168071 -34.83652616 86.99240057 -34.83588773 79.0430907 C-34.8356334 74.30216534 -34.83844864 69.56129191 -34.84906578 64.82037735 C-34.85878258 60.36011178 -34.85880148 55.89994744 -34.85154915 51.43967819 C-34.85050781 49.8087372 -34.85283922 48.17778977 -34.85890961 46.54685974 C-34.90677 32.79045398 -34.54502777 20.73151873 -24.71641541 10.1109314 C-17.38627592 3.34353884 -9.96089397 0.00675465 0 0 Z " fill="#202844" transform="translate(886.6070404052734,386.8460998535156)"/>
<path d="M0 0 C1.35141719 -0.00128164 1.35141719 -0.00128164 2.73013574 -0.00258917 C5.76113525 -0.00424154 8.7920799 0.00127347 11.82307434 0.00672913 C13.99097696 0.00701108 16.15887967 0.00685311 18.32678223 0.00628662 C24.22311907 0.00599895 30.11943569 0.01189079 36.01576781 0.01886058 C42.17372902 0.02509916 48.33169066 0.02569832 54.48965454 0.02688599 C66.15557875 0.02999781 77.82149362 0.0382092 89.4874137 0.04823548 C102.76655252 0.05940123 116.04569072 0.06490823 129.32483327 0.06993091 C156.64562259 0.08039193 183.96640361 0.0979885 211.28718567 0.12025452 C211.37883 37.84536448 211.44926943 75.57045761 211.49144699 113.29565645 C211.49644955 117.75395364 211.50162686 122.21225062 211.50691223 126.67054749 C211.50796147 127.55807834 211.50901071 128.4456092 211.51009175 129.36003493 C211.52747591 143.71276644 211.55900259 158.06543358 211.59579685 172.41812696 C211.63326173 187.15581227 211.65543323 201.89346397 211.66353965 216.63119495 C211.66901594 225.71816443 211.6862844 234.80495192 211.71885154 243.89186536 C211.74006797 250.13120793 211.74636966 256.37045703 211.74119118 262.60983302 C211.73864042 266.20451506 211.74242688 269.79888007 211.76400757 273.3935051 C211.89275605 295.97585948 210.32168542 311.99944317 195.11921692 329.60072327 C187.16705389 336.67540624 177.73705876 340.97092933 168.03718567 345.12025452 C165.65004304 346.16094943 163.26332097 347.20260957 160.87702942 348.24525452 C159.74120422 348.73896545 158.60537903 349.23267639 157.43513489 349.74134827 C149.70186438 353.12877745 142.03749937 356.68013258 134.53718567 360.55775452 C131.28718567 362.12025452 131.28718567 362.12025452 128.28718567 362.12025452 C127.95718567 332.75025452 127.62718567 303.38025452 127.28718567 273.12025452 C110.95218567 280.54525452 110.95218567 280.54525452 94.28718567 288.12025452 C90.77835754 289.68904358 87.26952942 291.25783264 83.65437317 292.87416077 C80.44116615 294.31547264 80.44116615 294.31547264 77.22859192 295.75819397 C75.80619024 296.39461117 74.38191971 297.02686251 72.95613098 297.65565491 C59.18788961 303.20547558 59.18788961 303.20547558 49.91218567 314.18275452 C49.61570129 314.81310608 49.31921692 315.44345764 49.01374817 316.09291077 C47.27489394 320.944875 47.12317566 325.74179883 47.0818634 330.84803772 C47.07196381 331.60954636 47.06206421 332.37105499 47.05186462 333.15563965 C47.02039747 335.66074058 46.99555097 338.16586044 46.97077942 340.67103577 C46.95019711 342.41267374 46.9292003 344.15430686 46.9078064 345.89593506 C46.8527176 350.47105469 46.80325035 355.04621842 46.75495911 359.62141418 C46.70464754 364.2935934 46.64901196 368.9657089 46.59382629 373.63783264 C46.48640616 382.79858545 46.38492558 391.95939367 46.28718567 401.12025452 C45.21924271 401.5853241 44.15129974 402.05039368 43.05099487 402.52955627 C41.61937125 403.15414742 40.18776728 403.77878362 38.75617981 404.40345764 C38.05592934 404.7082605 37.35567886 405.01306335 36.63420868 405.32710266 C29.45692377 408.46100546 22.36864875 411.77655278 15.28718567 415.12025452 C13.98145562 415.73504343 12.67562748 416.34962405 11.3697052 416.96400452 C10.71410614 417.27249329 10.05850708 417.58098206 9.38304138 417.89881897 C8.72363556 418.2090802 8.06422974 418.51934143 7.38484192 418.83900452 C6.04824595 419.46789499 4.71165743 420.09680128 3.37507629 420.72572327 C2.37891296 421.19437805 2.37891296 421.19437805 1.36262512 421.67250061 C0.0221308 422.30364663 -1.31803954 422.93548123 -2.65788269 423.56800842 C-10.24786723 427.15008948 -17.86027133 430.67876488 -25.52922058 434.08900452 C-26.20508713 434.39390808 -26.88095367 434.69881165 -27.57730103 435.01295471 C-30.4691497 436.28617974 -32.51595336 437.12025452 -35.71281433 437.12025452 C-35.80435246 385.0418924 -35.87484423 332.9635384 -35.91707565 280.88511166 C-35.92207853 274.73798793 -35.92725581 268.59086435 -35.93254089 262.44374084 C-35.93359014 261.21994958 -35.93463938 259.99615832 -35.93572041 258.73528247 C-35.95312975 238.91496782 -35.98467038 219.09469954 -36.02142552 199.2744124 C-36.05882017 178.93979869 -36.08104707 158.60520928 -36.08916831 138.27056259 C-36.09465913 125.72110859 -36.1120069 113.17178563 -36.1444802 100.62237196 C-36.16560984 92.01895089 -36.17201787 83.41559765 -36.16681984 74.81215251 C-36.16425567 69.84701931 -36.16821044 64.88211526 -36.18963623 59.91702271 C-36.2091149 55.36994088 -36.21007574 50.82324212 -36.19640991 46.27614259 C-36.19472114 44.6326478 -36.1997842 42.98912902 -36.21234706 41.34568138 C-36.27321436 32.89034685 -36.22891321 25.53158629 -31.71281433 18.12025452 C-31.13531433 17.08900452 -30.55781433 16.05775452 -29.96281433 14.99525452 C-22.0571999 4.89363607 -12.74288204 -0.04380893 0 0 Z " fill="#202844" transform="translate(1217.7128143310547,386.87974548339844)"/>
<path d="M0 0 C27.39 0 54.78 0 83 0 C83.0093457 7.89486328 83.01869141 15.78972656 83.02832031 23.92382812 C83.06103471 49.19034263 83.11332511 74.45678026 83.17792095 99.72323218 C83.18793829 103.64849556 83.19778244 107.57375935 83.20751953 111.49902344 C83.2094609 112.28046602 83.21140228 113.06190861 83.21340248 113.86703128 C83.24441548 126.51661479 83.26140117 139.16618016 83.27319422 151.81579453 C83.28560941 164.79746734 83.31311911 177.77904503 83.35461307 190.76065779 C83.37973798 198.76970239 83.39311802 206.7785892 83.39142957 214.78767377 C83.39139627 220.93120451 83.4123739 227.0745009 83.44116783 233.21796036 C83.4496887 235.73662572 83.45140201 238.25532471 83.44580269 240.77399826 C83.43917461 244.21349448 83.45705672 247.65203105 83.48101807 251.09143066 C83.46937744 252.58561925 83.46937744 252.58561925 83.45750165 254.10999346 C83.54649336 261.32860873 85.13506983 266.63486789 89.8527832 272.17626953 C94.38816242 275.98051484 98.72152687 278.6347985 104.1875 280.875 C105.93086002 281.6248841 107.67292984 282.37777119 109.4140625 283.1328125 C110.41985352 283.56625977 111.42564453 283.99970703 112.46191406 284.44628906 C119.20890738 287.40915585 125.88990202 290.51790364 132.58071899 293.6050415 C135.80462278 295.092375 139.02987539 296.57676627 142.25540161 298.06057739 C143.71161145 298.73050448 145.16766194 299.40077812 146.62350464 300.07150269 C152.4069461 302.73409647 158.20353124 305.36524147 164 308 C164 206.36 164 104.72 164 0 C191.39 0 218.78 0 247 0 C247 144.21 247 288.42 247 437 C241.22051317 435.07350439 236.23696672 433.31781813 230.84375 430.734375 C230.19236557 430.42463242 229.54098114 430.11488983 228.86985779 429.79576111 C227.47284483 429.13113051 226.07686553 428.46432347 224.68185425 427.79550171 C220.88868845 425.97789115 217.08675701 424.17879155 213.28515625 422.37890625 C212.50604385 422.00969559 211.72693146 421.64048492 210.92420959 421.26008606 C203.29884054 417.65378772 195.6246443 414.15968748 187.9375 410.6875 C175.4669475 405.04949778 163.0371358 399.32795027 150.625 393.5625 C137.93458171 387.66850802 125.23179264 381.80409454 112.5 376 C97.86931351 369.32928123 83.26951992 362.59315284 68.69091797 355.80932617 C61.14921763 352.30152426 53.60479159 348.80556073 46.01171875 345.41015625 C44.83037354 344.8780957 43.64902832 344.34603516 42.43188477 343.79785156 C40.33422217 342.85564564 38.23228999 341.92284287 36.12475586 341.00292969 C20.22566296 333.83332046 9.29449189 323.31128704 3 307 C0.29502771 299.06090067 -0.42592708 291.78939092 -0.36076355 283.43989563 C-0.36332682 282.22176546 -0.3658901 281.00363529 -0.36853105 279.74859208 C-0.37259195 276.39837887 -0.36331711 273.04870119 -0.34819686 269.6985532 C-0.33516405 266.07430985 -0.33963105 262.45008114 -0.34190369 258.82582092 C-0.34347187 252.55683342 -0.33411046 246.28794004 -0.31719017 240.01897621 C-0.29274273 230.95527631 -0.28498904 221.89162163 -0.2812262 212.82789233 C-0.2746707 198.12034321 -0.25473407 183.4128442 -0.22631836 168.70532227 C-0.19875441 154.42374928 -0.17753228 140.14218994 -0.16479492 125.8605957 C-0.16400675 124.97933497 -0.16321858 124.09807424 -0.16240653 123.19010863 C-0.15849123 118.76880061 -0.15470015 114.34749248 -0.15097082 109.9261843 C-0.11990299 73.28407836 -0.0646151 36.64206515 0 0 Z " fill="#202844" transform="translate(523,387)"/>
<path d="M0 0 C0.29137426 61.89476532 0.56166509 123.78960989 0.71983337 185.68487549 C0.72218034 186.60095794 0.72452731 187.5170404 0.7269454 188.46088293 C0.77782496 208.36987149 0.82491803 228.27886732 0.8681106 248.187874 C0.8893153 257.95126006 0.91135672 267.71464415 0.93383789 277.47802734 C0.93606079 278.44960083 0.9382837 279.42117431 0.94057396 280.42218942 C1.0130159 311.91326759 1.14070658 343.40382717 1.29705275 374.89459116 C1.45742852 407.2557667 1.56205727 439.61665525 1.59655483 471.97822147 C1.60145346 476.54914393 1.60698928 481.1200654 1.61291313 485.69098663 C1.61405932 486.59060852 1.61520551 487.49023041 1.61638644 488.41711356 C1.63647524 502.89824093 1.71531881 517.37848087 1.81614458 531.85924634 C1.9162581 546.41785256 1.95444915 560.97557919 1.92952342 575.53451756 C1.91659309 584.18489194 1.95104557 592.83204701 2.05355823 601.48183983 C2.11739183 607.26306075 2.1192334 613.04217838 2.07114083 618.82354555 C2.04549867 622.11786624 2.05580302 625.40490089 2.1230141 628.69881079 C2.48888666 647.73634379 2.48888666 647.73634379 -1.67911394 653.20180804 C-5.66496332 656.96223552 -10.10336302 659.58993978 -15.00375647 661.98911825 C-17.65988586 663.33416092 -19.99908815 665.0162388 -22.37890625 666.796875 C-26.25260417 669.53125 -30.12630208 672.265625 -34 675 C-42.1258491 670.14275088 -49.69258083 664.63427553 -57.27270508 658.97607422 C-58.05540771 658.39229004 -58.83811035 657.80850586 -59.64453125 657.20703125 C-60.33909424 656.6860083 -61.03365723 656.16498535 -61.74926758 655.62817383 C-64.04087497 653.86173773 -64.04087497 653.86173773 -67.09452784 652.56248069 C-70.31262275 649.72428242 -70.44349289 649.36616533 -70.74519098 645.34179902 C-70.77375383 643.35211474 -70.76871363 641.36179181 -70.73828697 639.37213516 C-70.74521004 638.27176526 -70.7521331 637.17139536 -70.75926596 636.03768092 C-70.77525859 632.31806163 -70.74814129 628.59997345 -70.7215271 624.88043213 C-70.72414148 622.19994395 -70.72913713 619.51955697 -70.7370621 616.83908916 C-70.7495189 610.99476852 -70.73961823 605.1508139 -70.71523285 599.30653572 C-70.67907334 590.61634189 -70.67721323 581.9263796 -70.68248478 573.23612426 C-70.69037499 558.61898818 -70.67029411 544.00201462 -70.63438034 529.38492584 C-70.59890212 514.90806526 -70.57578952 500.43127233 -70.56926346 485.95436859 C-70.56885102 485.05490449 -70.56843858 484.15544039 -70.56801365 483.2287198 C-70.5659837 478.66096655 -70.56417538 474.09321323 -70.56245239 469.52545986 C-70.5498433 437.15543625 -70.50940073 404.7855011 -70.45263672 372.41552734 C-70.39754807 340.96468578 -70.35503762 309.51386841 -70.32958984 278.06298828 C-70.32880069 277.0938721 -70.32801153 276.12475592 -70.32719846 275.12627258 C-70.31928747 265.39418469 -70.31163257 255.66209661 -70.3041653 245.93000836 C-70.28894722 226.10387066 -70.2720197 206.27773453 -70.25405884 186.45159912 C-70.2532351 185.53998597 -70.25241136 184.62837282 -70.25156266 183.68913503 C-70.19634027 122.79271985 -70.10126692 61.89635388 -70 1 C-65.78175688 1.76212998 -62.4558608 3.07731988 -58.59765625 4.9765625 C-57.36551664 5.57089803 -56.13308564 6.16462978 -54.90039062 6.7578125 C-52.9771247 7.69057313 -51.05655908 8.62794065 -49.14086914 9.57617188 C-47.27882157 10.49466425 -45.40809357 11.39303089 -43.53515625 12.2890625 C-41.87045288 13.10431396 -41.87045288 13.10431396 -40.17211914 13.93603516 C-34.10213451 15.97197705 -29.58221388 13.54795591 -24.0625 10.875 C-22.74877171 10.24593963 -21.4349672 9.61703839 -20.12109375 8.98828125 C-19.11151611 8.50029053 -19.11151611 8.50029053 -18.08154297 8.00244141 C-14.60823042 6.32974362 -11.11678019 4.69619505 -7.625 3.0625 C-6.97668213 2.75618652 -6.32836426 2.44987305 -5.66040039 2.13427734 C-1.11386191 0 -1.11386191 0 0 0 Z " fill="#C52133" transform="translate(1011,993)"/>
<path d="M0 0 C0.22252617 58.30026704 0.42949583 116.60057707 0.55046082 174.90115356 C0.55315293 176.19533638 0.55315293 176.19533638 0.55589943 177.5156643 C0.59480672 196.26613041 0.63081916 215.01660103 0.66384928 233.76707839 C0.68006474 242.96223295 0.69691993 252.15738628 0.71411133 261.35253906 C0.7158112 262.26757004 0.71751106 263.18260102 0.71926244 264.12536022 C0.77466568 293.78724387 0.87231655 323.4488057 0.99186387 353.11049437 C1.11448559 383.59033466 1.19451016 414.06999685 1.22089487 444.55007964 C1.22464091 448.85460601 1.22887419 453.15913177 1.23340416 457.46365738 C1.23471891 458.7344529 1.23471891 458.7344529 1.23606022 460.03092106 C1.25142609 473.67171619 1.31172928 487.31196078 1.38881644 500.95253135 C1.46534692 514.66415697 1.4945852 528.37523651 1.47551791 542.08706824 C1.46562547 550.2352589 1.4920231 558.38145186 1.57036806 566.52928193 C1.6248685 572.61265381 1.61149834 578.6938811 1.57168563 584.77744962 C1.56618352 587.23930764 1.58275929 589.70133315 1.62348137 592.1628605 C1.92530042 611.53107555 1.92530042 611.53107555 -2.84556448 616.61262345 C-5.97699511 619.29768215 -9.33268964 621.13543429 -13 623 C-14.47111132 624.02092922 -15.92899883 625.06210409 -17.35546875 626.14453125 C-18.63100364 627.03644663 -19.90834802 627.92577992 -21.1875 628.8125 C-22.64121578 629.82988553 -24.09432012 630.8481452 -25.546875 631.8671875 C-26.64612305 632.63820801 -26.64612305 632.63820801 -27.76757812 633.42480469 C-31.51181435 636.06673514 -35.22521025 638.75094794 -38.9375 641.4375 C-39.67331299 641.96939941 -40.40912598 642.50129883 -41.16723633 643.04931641 C-45.1156403 645.90564521 -49.05796864 648.77014219 -52.99609375 651.640625 C-54.22114624 652.53116577 -54.22114624 652.53116577 -55.47094727 653.43969727 C-57.03706485 654.57830149 -58.60144693 655.7192979 -60.16381836 656.86303711 C-60.87030518 657.37616455 -61.57679199 657.88929199 -62.3046875 658.41796875 C-62.92327637 658.86938232 -63.54186523 659.3207959 -64.17919922 659.78588867 C-66 661 -66 661 -70 663 C-70 454.44 -70 245.88 -70 31 C-63.4 28.03 -56.8 25.06 -50 22 C-42.59819144 18.57436959 -35.21877897 15.10640291 -27.84985352 11.61108398 C-24.64272511 10.09025275 -21.43426211 8.57225007 -18.22558594 7.0546875 C-16.79558891 6.37702327 -15.36647425 5.69749221 -13.93847656 5.015625 C-12.1280676 4.15117075 -10.31415222 3.29407076 -8.5 2.4375 C-7.4996875 1.96183594 -6.499375 1.48617187 -5.46875 0.99609375 C-3 0 -3 0 0 0 Z " fill="#C52133" transform="translate(1150,930)"/>
<path d="M0 0 C2.8165209 1.24955977 5.63281005 2.49963759 8.44897461 3.75 C9.23361839 4.09804688 10.01826218 4.44609375 10.82668304 4.8046875 C18.36657492 8.15322064 25.87645343 11.56588278 33.37768555 15 C35.56559825 16.00141809 37.75443383 17.00079806 39.94335938 18 C41.4010971 18.66654546 42.85878118 19.33320824 44.31640625 20 C44.93777969 20.28359375 45.55915314 20.5671875 46.19935608 20.859375 C54.16350111 24.50907404 62.0721248 28.2692352 70 32 C70 240.23 70 448.46 70 663 C67.1126396 661.5563198 64.86001013 660.28270862 62.3046875 658.41796875 C61.59828125 657.90492188 60.891875 657.391875 60.1640625 656.86328125 C59.40867187 656.31027344 58.65328125 655.75726562 57.875 655.1875 C56.24745214 654.00382883 54.61984637 652.82023727 52.9921875 651.63671875 C51.74646973 650.72865479 51.74646973 650.72865479 50.47558594 649.80224609 C46.65859782 647.02344863 42.82902415 644.26217473 39 641.5 C37.50776993 640.42193392 36.01558262 639.34380866 34.5234375 638.265625 C31.44746806 636.04386872 28.3690577 633.82554668 25.2890625 631.609375 C24.50789062 631.04669922 23.72671875 630.48402344 22.921875 629.90429688 C21.46162084 628.8525662 20.00075247 627.8016874 18.5390625 626.75195312 C17.17550859 625.76931627 15.82727471 624.7650259 14.49622464 623.73878998 C12.00192022 621.90003355 12.00192022 621.90003355 8.98856807 620.56854159 C4.49568056 618.09389095 0.86341287 615.83559887 -0.691616 610.72861211 C-1.85822802 603.42702729 -1.55543661 596.01450133 -1.4430542 588.64585876 C-1.44828752 586.1095729 -1.45879529 583.57329334 -1.47412419 581.0370484 C-1.49536748 575.5226202 -1.47937256 570.01024058 -1.4304657 564.49602318 C-1.35795074 556.29718917 -1.35444404 548.09933355 -1.36496956 539.90023731 C-1.38072645 526.10763732 -1.34067883 512.31572783 -1.26876068 498.52332878 C-1.19774175 484.86836263 -1.15156659 471.21368411 -1.13852692 457.55853462 C-1.13770204 456.7093227 -1.13687717 455.86011078 -1.13602729 454.98516517 C-1.13196726 450.67239853 -1.12835067 446.35963163 -1.12490478 442.04686446 C-1.0997037 411.5041104 -1.01886666 380.96173195 -0.90527344 350.41918945 C-0.79505071 320.74863685 -0.7100522 291.07818705 -0.65917969 261.4074707 C-0.65760137 260.49279816 -0.65602306 259.57812563 -0.65439692 258.63573574 C-0.6385746 249.45016892 -0.62326484 240.26460131 -0.60833061 231.07903301 C-0.57789653 212.36718209 -0.5440415 193.65533787 -0.50811768 174.9434967 C-0.5064702 174.0831676 -0.50482272 173.2228385 -0.50312531 172.33643882 C-0.39272818 114.89080189 -0.20233734 57.4453775 0 0 Z " fill="#C52133" transform="translate(802,929)"/>
<path d="M0 0 C0.27391709 54.74450201 0.52864394 109.4890689 0.67749023 164.23406982 C0.67969915 165.04442196 0.68190806 165.8547741 0.68418391 166.68968237 C0.73207139 184.30118101 0.77639416 201.91268694 0.81704527 219.52420373 C0.83700251 228.16099421 0.85774739 236.79778271 0.87890625 245.43457031 C0.88099839 246.2940306 0.88309054 247.15349088 0.88524608 248.03899541 C0.95341758 275.89243841 1.0735901 303.74536179 1.22075553 331.59849003 C1.37172338 360.22329671 1.47017753 388.84781588 1.50263984 417.47301394 C1.50725026 421.51688908 1.51246045 425.56076323 1.51803589 429.60463715 C1.51911466 430.40052275 1.52019342 431.19640835 1.52130488 432.01641169 C1.54020648 444.82384036 1.61439702 457.63037953 1.70931254 470.43744556 C1.80357429 483.31574083 1.83947237 496.19315513 1.81602204 509.07178321 C1.8038591 516.72235723 1.8362144 524.36970505 1.93276069 532.01969578 C1.99996845 537.73604986 1.9833148 543.44973388 1.93438232 549.16616043 C1.92762372 551.47600237 1.94791338 553.78611678 1.99813092 556.09542266 C2.34252385 572.91200285 2.34252385 572.91200285 -1.58701444 578.09205812 C-5.35130328 581.75794988 -9.55604233 584.47515066 -14.15478528 586.98015866 C-16.46015661 588.25432636 -18.54677973 589.75617464 -20.6484375 591.33984375 C-21.8890579 592.20797298 -23.13120602 593.07392379 -24.375 593.9375 C-30.26118671 598.06077345 -36.11502962 602.22469336 -41.9375 606.4375 C-43.03831909 607.23341553 -43.03831909 607.23341553 -44.16137695 608.04541016 C-48.14558801 610.92823448 -52.12482955 613.81780768 -56.1015625 616.7109375 C-57.34691772 617.61501343 -57.34691772 617.61501343 -58.61743164 618.53735352 C-60.2222611 619.70247733 -61.8256638 620.86956939 -63.42749023 622.03881836 C-64.50172241 622.81817749 -64.50172241 622.81817749 -65.59765625 623.61328125 C-66.23195557 624.07516846 -66.86625488 624.53705566 -67.51977539 625.01293945 C-69 626 -69 626 -70 626 C-70 429.65 -70 233.3 -70 31 C-65.05 28.69 -60.1 26.38 -55 24 C-51.64660198 22.39928719 -51.64660198 22.39928719 -48.2956543 20.79345703 C-38.34008626 16.01944195 -28.2675555 11.52166478 -18.16308594 7.07348633 C-17.06125977 6.58775146 -15.95943359 6.1020166 -14.82421875 5.6015625 C-13.84541748 5.17182129 -12.86661621 4.74208008 -11.8581543 4.29931641 C-9.81825836 3.3719801 -7.80877785 2.37651043 -5.82348633 1.33740234 C-3 0 -3 0 0 0 Z " fill="#C52133" transform="translate(1290,866)"/>
<path d="M0 0 C1.41857808 0.46164859 2.83619078 0.92626418 4.25340271 1.39208984 C5.43770953 1.77969986 5.43770953 1.77969986 6.64594173 2.17514038 C10.18822402 3.41635249 13.53437426 4.99276275 16.91015625 6.625 C17.63244415 6.96873657 18.35473206 7.31247314 19.09890747 7.66662598 C21.42230547 8.77320452 23.74236131 9.88660656 26.0625 11 C29.27745795 12.53374891 32.494147 14.06384902 35.7109375 15.59375 C36.5041893 15.97156616 37.2974411 16.34938232 38.11473083 16.73864746 C46.10380702 20.53809429 54.14325459 24.2212955 62.20532227 27.86328125 C63.10049561 28.26933594 63.99566895 28.67539062 64.91796875 29.09375 C65.68906982 29.44115234 66.4601709 29.78855469 67.25463867 30.14648438 C69 31 69 31 70 32 C70.09917149 35.1404236 70.13172998 38.25889305 70.12304783 41.39976597 C70.12420167 42.40381378 70.12535552 43.40786159 70.12654433 44.4423351 C70.12921934 47.85183671 70.12468161 51.26129235 70.12025452 54.67079163 C70.12069004 57.12178621 70.12156459 59.57278075 70.12284368 62.02377504 C70.12462137 67.3759222 70.12326389 72.72805524 70.11920547 78.0802002 C70.11318739 86.03872806 70.11286809 93.99724889 70.11374746 101.95577861 C70.11506354 115.34122394 70.11171174 128.72666434 70.10573006 142.11210823 C70.09981975 155.3717355 70.09596547 168.63136072 70.09487724 181.8909893 C70.0948085 182.71441055 70.09473976 183.5378318 70.09466894 184.38620521 C70.09433062 188.56768292 70.09402923 192.74916064 70.09374207 196.93063837 C70.0916398 226.57363335 70.08489727 256.21662566 70.07543945 285.85961914 C70.06626 314.66332993 70.05917395 343.46703999 70.05493164 372.27075195 C70.05480011 373.15808964 70.05466859 374.04542732 70.05453308 374.95965403 C70.05321459 383.87039396 70.05193877 392.78113389 70.05069422 401.69187383 C70.04815778 419.84523669 70.04533653 437.9985995 70.04234314 456.15196228 C70.0421372 457.40404698 70.0421372 457.40404698 70.04192711 458.68142631 C70.03272129 514.45428533 70.01685474 570.22714283 70 626 C62.32766923 621.65084614 62.32766923 621.65084614 58.79296875 619.00390625 C58.05071045 618.45186523 57.30845215 617.89982422 56.54370117 617.33105469 C55.76615479 616.74743164 54.9886084 616.16380859 54.1875 615.5625 C52.5005388 614.30786896 50.81302518 613.0539804 49.125 611.80078125 C47.84689453 610.85066162 47.84689453 610.85066162 46.54296875 609.88134766 C42.61300344 606.97386756 38.65309953 604.10860227 34.6875 601.25 C33.9437915 600.7135083 33.20008301 600.1770166 32.43383789 599.62426758 C29.02359428 597.16740111 25.60832266 594.71788684 22.18359375 592.28125 C21.27830933 591.63687988 21.27830933 591.63687988 20.35473633 590.97949219 C18.77167036 589.85425292 17.186712 588.73167723 15.6015625 587.609375 C14.80643686 586.99721836 14.80643686 586.99721836 13.99524808 586.37269491 C11.9169099 584.86880195 11.9169099 584.86880195 9.07401729 583.58324581 C4.6829912 581.1037566 0.90884418 578.83385263 -0.69546121 573.83149342 C-1.85291032 566.96590161 -1.5557136 559.98636694 -1.4430542 553.05052185 C-1.44828804 550.66685259 -1.45879676 548.28319005 -1.47412419 545.89956433 C-1.49536031 540.71876772 -1.47938559 535.53946512 -1.4304657 530.35891342 C-1.35792885 522.65591068 -1.35444595 514.95394889 -1.36496956 507.25066686 C-1.38072386 494.29198754 -1.34068891 481.33404333 -1.26876068 468.37557793 C-1.19773481 455.54677123 -1.15156522 442.71827076 -1.13852692 429.88926888 C-1.13770204 429.09135179 -1.13687717 428.2934347 -1.13602729 427.4713383 C-1.13196725 423.41905334 -1.12835066 419.36676811 -1.12490478 415.31448258 C-1.09970559 386.61854501 -1.01887389 357.92300728 -0.90527344 329.22729492 C-0.79504567 301.35133998 -0.71004966 273.47549448 -0.65917969 245.59936523 C-0.65760137 244.73997276 -0.65602306 243.88058029 -0.65439692 242.99514563 C-0.63857456 234.36470466 -0.62326481 225.73426284 -0.60833061 217.10382029 C-0.57789676 199.52290743 -0.54404173 181.94200171 -0.50811768 164.36109924 C-0.5064702 163.55277323 -0.50482272 162.74444722 -0.50312531 161.91162649 C-0.39273345 107.94091644 -0.20234317 53.97043403 0 0 Z " fill="#C52133" transform="translate(662,865)"/>
<path d="M0 0 C0.02289115 58.50739134 0.04051287 117.01478241 0.05106533 175.52217732 C0.05231263 182.43023085 0.05360919 189.33828437 0.05493164 196.24633789 C0.0550624 196.9337605 0.05519316 197.62118312 0.05532788 198.32943672 C0.05958678 220.59790509 0.06709627 242.86637092 0.07629722 265.13483775 C0.08600555 288.67411097 0.09199769 312.21338193 0.09408849 335.75265723 C0.09546029 349.84980273 0.09979233 363.94694092 0.10791647 378.04408417 C0.11320426 387.71230887 0.11479966 397.3805298 0.11350138 407.04875585 C0.11286119 412.62593021 0.1138395 418.20309181 0.11920547 423.7802639 C0.12408686 428.89120221 0.12430761 434.00211924 0.12089889 439.11305854 C0.12047786 440.95715424 0.12173348 442.80125129 0.12488318 444.64534434 C0.14625588 457.93691115 -0.1390775 471.03244718 -2.6875 484.125 C-2.85975098 485.01461426 -3.03200195 485.90422852 -3.20947266 486.82080078 C-5.09780705 496.1175962 -7.82332409 505.06900259 -11 514 C-11.23444824 514.66193359 -11.46889648 515.32386719 -11.71044922 516.00585938 C-23.72558012 549.27852955 -45.83128034 575.1851374 -74 596 C-74.85062012 596.63147949 -75.70124023 597.26295898 -76.57763672 597.91357422 C-91.63232143 609.08821429 -91.63232143 609.08821429 -96 612 C-94.66367096 608.33650281 -93.00313822 605.34328315 -90.8125 602.125 C-77.98323998 582.20097248 -70.80256565 557.71459272 -70.87530136 534.04352093 C-70.87395713 533.17243001 -70.87261289 532.30133909 -70.87122792 531.40385148 C-70.86792211 528.48875471 -70.87170325 525.57371074 -70.87542725 522.65861511 C-70.87444069 520.54607551 -70.87300331 518.43353608 -70.87115407 516.32099706 C-70.86809703 511.72995845 -70.86820116 507.13893434 -70.87071037 502.54789543 C-70.87477263 495.07826226 -70.87199976 487.60864042 -70.86836243 480.13900757 C-70.86396938 470.00014731 -70.86200409 459.86129092 -70.86193134 449.72242997 C-70.86168016 432.61566541 -70.84999839 415.50892225 -70.83432076 398.40216553 C-70.83099649 394.76086938 -70.82777465 391.11957314 -70.8245399 387.47827691 C-70.82060391 383.05817692 -70.81665733 378.63807694 -70.81267868 374.21797698 C-70.79771229 357.55816084 -70.78408999 340.89834385 -70.77197266 324.23852539 C-70.7714145 323.47731614 -70.77085633 322.71610689 -70.77028126 321.9318307 C-70.75226338 297.22183587 -70.74795893 272.51185854 -70.74967168 247.80185801 C-70.75133935 222.39816571 -70.73647398 196.99453129 -70.70174684 171.5908616 C-70.69686113 168.00661764 -70.69217947 164.42237344 -70.6876297 160.83812904 C-70.68673016 160.13271342 -70.68583063 159.4272978 -70.68490384 158.70050594 C-70.67092347 147.33151511 -70.6746981 135.96259554 -70.68524162 124.59360383 C-70.69549244 113.17955814 -70.68750966 101.76566779 -70.6618239 90.35163524 C-70.64846436 84.16392719 -70.64341647 77.97649244 -70.65994453 71.78878593 C-70.67488819 66.13201768 -70.66712815 60.47576666 -70.640775 54.81904427 C-70.63532011 52.76541238 -70.63844132 50.71173744 -70.65069196 48.65813484 C-70.66605402 45.88054401 -70.65107869 43.10477108 -70.6280632 40.32727337 C-70.63987977 39.51762067 -70.65169634 38.70796797 -70.66387099 37.87378034 C-70.62625384 35.6399371 -70.62625384 35.6399371 -70 32 C-67.58936238 30.04552442 -67.58936238 30.04552442 -65 29 C-63.98135864 28.47744629 -63.98135864 28.47744629 -62.94213867 27.94433594 C-62.2741626 27.62754883 -61.60618652 27.31076172 -60.91796875 26.984375 C-60.15895264 26.6239209 -59.39993652 26.2634668 -58.61791992 25.89208984 C-57.81588135 25.5152002 -57.01384277 25.13831055 -56.1875 24.75 C-55.34872314 24.35377441 -54.50994629 23.95754883 -53.64575195 23.54931641 C-47.71507226 20.76361769 -41.73432081 18.11672682 -35.71630859 15.52661133 C-30.17143502 13.1206741 -24.79815878 10.44399218 -19.40625 7.7109375 C-15.89424302 5.94687895 -12.36769665 4.2378471 -8.8125 2.5625 C-7.76707031 2.06878906 -6.72164062 1.57507813 -5.64453125 1.06640625 C-3 0 -3 0 0 0 Z " fill="#C52033" transform="translate(1429,801)"/>
<path d="M0 0 C3.73603258 0.86854807 6.98744928 2.25784809 10.484375 3.8515625 C11.12513977 4.14270935 11.76590454 4.4338562 12.42608643 4.73382568 C14.53574903 5.69388859 16.64296078 6.65919461 18.75 7.625 C20.21480929 8.29385801 21.67965352 8.96263954 23.14453125 9.63134766 C33.78589781 14.49657906 44.40042797 19.41944661 55 24.375 C55.70298218 24.70300598 56.40596436 25.03101196 57.13024902 25.36895752 C59.10883684 26.29297723 61.08593259 27.22010524 63.0625 28.1484375 C64.18785156 28.67614746 65.31320312 29.20385742 66.47265625 29.74755859 C69 31 69 31 70 32 C70.09947355 34.69758453 70.13283034 37.36962151 70.12469864 40.06771946 C70.12671499 41.3578683 70.12671499 41.3578683 70.12877208 42.67408076 C70.13211587 45.5941444 70.12827577 48.51415674 70.12457275 51.43421936 C70.12555793 53.53400063 70.12699418 55.63378173 70.12884593 57.73356241 C70.13191709 62.31897759 70.13178834 66.90437827 70.12928963 71.48979378 C70.12524484 78.95001741 70.12799162 86.41022959 70.13163757 93.87045288 C70.13604043 104.00118492 70.13799607 114.13191307 70.13806866 124.2626458 C70.13831965 141.38374923 70.14999573 158.50483121 70.16567924 175.6259268 C70.16900402 179.2696972 70.1722258 182.91346768 70.1754601 186.55723816 C70.17939667 190.9819238 70.18334321 195.40660943 70.18732132 199.83129503 C70.20230571 216.53230434 70.2159152 233.23331453 70.22802734 249.93432617 C70.22886459 251.07947597 70.22886459 251.07947597 70.22971874 252.2477601 C70.24768238 276.95475452 70.25204545 301.66173143 70.25032832 326.36873151 C70.2486557 351.78009832 70.26364002 377.19140743 70.29825316 402.60275175 C70.30313811 406.19933933 70.30781995 409.79592716 70.3123703 413.39251518 C70.3137196 414.4542025 70.3137196 414.4542025 70.31509616 415.53733804 C70.32901006 426.88861892 70.32533856 438.23982804 70.31475838 449.59110971 C70.30443716 461.02766041 70.31266191 472.46404848 70.3381761 483.90058304 C70.35142167 490.08679331 70.35677778 496.27273253 70.34005547 502.45894051 C70.32487169 508.13928815 70.33325633 513.81912829 70.359225 519.49943238 C70.36458326 521.53816963 70.36178847 523.57695113 70.34930804 525.61565722 C70.18253056 555.05626251 77.56274269 586.37726407 96 610 C95.67 610.66 95.34 611.32 95 612 C94.49855469 611.58492187 93.99710938 611.16984375 93.48046875 610.7421875 C88.47706842 606.66786832 83.37410481 602.78614863 78.15917969 598.98779297 C36.8921715 568.9302151 10.90121718 530.43068399 1.8125 479.8125 C-0.05565709 467.20575914 -0.14196362 454.64561657 -0.12025452 441.93534851 C-0.12069123 440.02259568 -0.12156798 438.1098429 -0.12284368 436.19709045 C-0.12506893 430.97032875 -0.12109445 425.74358772 -0.11606562 420.51682866 C-0.1117329 414.8694243 -0.11320954 409.22202103 -0.1139679 403.57461548 C-0.11449134 393.7998038 -0.11136325 384.02499882 -0.10573006 374.25018883 C-0.0975908 360.11758599 -0.09499735 345.98498637 -0.09374207 331.85238145 C-0.09155536 308.92119817 -0.08491423 285.99001912 -0.07543945 263.05883789 C-0.06624818 240.78800475 -0.05916792 218.51717255 -0.05493164 196.24633789 C-0.05480011 195.55928796 -0.05466859 194.87223802 -0.05453308 194.16436839 C-0.0532145 187.26443609 -0.0519387 180.36450378 -0.05069422 173.46457147 C-0.04026145 115.6430452 -0.0226228 57.82152272 0 0 Z " fill="#C52033" transform="translate(523,801)"/>
<path d="M0 0 C27.06 0 54.12 0 82 0 C82 33.99 82 67.98 82 103 C40.7751218 122.46730359 40.7751218 122.46730359 27.875 128.25 C16.2954678 133.44456339 16.2954678 133.44456339 4.95751953 139.14355469 C3 140 3 140 0 140 C0 93.8 0 47.6 0 0 Z " fill="#FDFDFD" transform="translate(1264,465)"/>
</svg>
